<svg width="102" height="43" viewBox="0 0 102 43" fill="none" xmlns="http://www.w3.org/2000/svg">
<path d="M0.975327 40.9657V36.3974H0.304688V35.6744H0.975327V33.6484H1.74853V35.6744H2.91623V36.3974H1.74853V40.9657H0.975327Z" fill="white"/>
<path d="M4.21094 40.9659V33.6406H4.98414V36.5644C5.26818 35.9764 5.83625 35.5871 6.60156 35.5871C7.76137 35.5871 8.48724 36.3737 8.48724 37.5813V40.9659H7.71403V37.7482C7.71403 36.8663 7.21697 36.3101 6.41221 36.3101C5.60744 36.3101 4.98414 36.9219 4.98414 37.8038V40.9659H4.21094Z" fill="white"/>
<path d="M9.85164 38.3358C9.85164 37.4937 10.1041 36.8263 10.5933 36.3099C11.0825 35.7934 11.7215 35.5312 12.479 35.5312C13.1969 35.5312 13.7729 35.7855 14.2226 36.286C14.6723 36.7786 14.9011 37.3983 14.9011 38.1451C14.9011 38.2643 14.9012 38.3755 14.8933 38.4788H10.6248C10.6643 39.6547 11.3902 40.4095 12.5105 40.4095C13.4573 40.4095 14.1043 40.0599 14.4435 39.6547V40.5366C13.9307 40.9338 13.2837 41.1324 12.5105 41.1324C11.7373 41.1324 11.0746 40.8782 10.5775 40.3856C10.0883 39.8851 9.84375 39.2098 9.84375 38.3755V38.3199L9.85164 38.3358ZM14.0806 37.8035C14.0806 37.3824 13.9228 37.0249 13.6151 36.723C13.2995 36.4211 12.9287 36.2622 12.4869 36.2622C12.0056 36.2622 11.5874 36.4131 11.2481 36.715C10.901 37.017 10.7195 37.3745 10.688 37.8035H14.0885H14.0806Z" fill="white"/>
<path d="M19.5781 39.5438C20.0594 40.0921 20.6669 40.3622 21.3928 40.3622C22.0713 40.3622 22.4579 40.0603 22.4579 39.6233C22.4579 39.3373 22.3869 39.1545 22.1265 38.948C22.0003 38.8526 21.8899 38.7732 21.7794 38.7176L21.2666 38.4474C20.7537 38.1932 20.5328 38.0661 20.2409 37.8198C19.9489 37.5576 19.8306 37.2636 19.8306 36.8743C19.8306 36.4612 19.9805 36.1275 20.2724 35.8892C20.5644 35.6349 20.9588 35.5078 21.4638 35.5078C21.9688 35.5078 22.3632 35.627 22.6631 35.8415V36.636C22.3159 36.3659 21.9451 36.2229 21.5348 36.2229C20.9194 36.2229 20.6038 36.4294 20.6038 36.8664C20.6038 37.216 20.7774 37.359 21.2429 37.6132L21.7242 37.8675C21.953 37.9866 22.1108 38.074 22.2054 38.1296C22.3001 38.1853 22.4343 38.2806 22.5921 38.3918C22.7577 38.511 22.8761 38.6222 22.9471 38.7255C23.0812 38.9241 23.2311 39.2499 23.2311 39.6154C23.2311 39.949 23.0812 40.2748 22.7814 40.6005C22.4895 40.9183 22.0319 41.0693 21.3928 41.0693C20.6275 41.0693 20.0278 40.8627 19.5781 40.4257V39.52V39.5438Z" fill="white"/>
<path d="M24.3906 35.6681H25.1638V38.8381C25.1638 39.8392 25.7082 40.3636 26.5919 40.3636C27.4756 40.3636 28.0357 39.8313 28.0357 38.8302V35.6681H28.8089V38.8381C28.8089 40.2682 27.9016 41.0866 26.5682 41.0866C25.2348 41.0866 24.3985 40.3 24.3985 38.9096V35.6602L24.3906 35.6681Z" fill="white"/>
<path d="M30.336 40.9666V35.6753H31.1092V36.5651C31.3933 35.9772 32.0087 35.5879 32.7977 35.5879C33.9969 35.5879 34.7464 36.3744 34.7464 37.5821V40.9666H33.9732V37.7489C33.9732 36.867 33.4446 36.3109 32.5925 36.3109C31.7404 36.3109 31.1013 36.9226 31.1013 37.8045V40.9666H30.3281H30.336Z" fill="white"/>
<path d="M36.2891 40.9666V35.6753H37.0623V36.5651C37.3464 35.9772 37.9618 35.5879 38.7508 35.5879C39.95 35.5879 40.6996 36.3744 40.6996 37.5821V40.9666H39.9264V37.7489C39.9264 36.867 39.3977 36.3109 38.5456 36.3109C37.6935 36.3109 37.0545 36.9226 37.0545 37.8045V40.9666H36.2812H36.2891Z" fill="white"/>
<path d="M43.5909 40.9989L41.4922 35.6758H42.2733L43.9933 40.0693L45.8079 35.6758H46.6048L43.5199 43.001H42.7467L43.5909 41.0069V40.9989Z" fill="white"/>
<path d="M50.5547 39.5438C51.036 40.0921 51.6435 40.3622 52.3694 40.3622C53.0479 40.3622 53.4345 40.0603 53.4345 39.6233C53.4345 39.3373 53.3635 39.1545 53.1031 38.948C52.9769 38.8526 52.8664 38.7732 52.756 38.7176L52.2431 38.4474C51.7303 38.1932 51.5094 38.0661 51.2174 37.8198C50.9255 37.5576 50.8072 37.2636 50.8072 36.8743C50.8072 36.4612 50.9571 36.1275 51.249 35.8892C51.5409 35.6349 51.9354 35.5078 52.4404 35.5078C52.9453 35.5078 53.3398 35.627 53.6396 35.8415V36.636C53.2925 36.3659 52.9216 36.2229 52.5114 36.2229C51.896 36.2229 51.5804 36.4294 51.5804 36.8664C51.5804 37.216 51.7539 37.359 52.2194 37.6132L52.7007 37.8675C52.9295 37.9866 53.0873 38.074 53.182 38.1296C53.2767 38.1853 53.4108 38.2806 53.5686 38.3918C53.7343 38.511 53.8527 38.6222 53.9237 38.7255C54.0578 38.9241 54.2077 39.2499 54.2077 39.6154C54.2077 39.949 54.0578 40.2748 53.758 40.6005C53.466 40.9183 53.0084 41.0693 52.3694 41.0693C51.604 41.0693 51.0044 40.8627 50.5547 40.4257V39.52V39.5438Z" fill="white"/>
<path d="M55.4585 34.642C55.2534 34.4354 55.2534 34.0938 55.4585 33.8952C55.6637 33.6886 55.9793 33.6886 56.1923 33.8952C56.3974 34.0938 56.3974 34.4275 56.1923 34.642C55.9872 34.8406 55.6716 34.8406 55.4585 34.642ZM55.4349 40.9662V35.6748H56.2081V40.9662H55.4349Z" fill="white"/>
<path d="M62.1147 36.4531V33.6406H62.8879V40.9659H62.1147V40.1793C61.8149 40.7116 61.1995 41.1248 60.2448 41.1248C59.5032 41.1248 58.872 40.8626 58.3591 40.3223C57.8463 39.79 57.5859 39.1147 57.5859 38.3123C57.5859 37.5098 57.8463 36.8504 58.3591 36.3181C58.872 35.7858 59.5032 35.5077 60.2448 35.5077C61.1916 35.5077 61.807 35.9208 62.1147 36.4531ZM61.6492 39.8059C62.0279 39.4087 62.2094 38.9161 62.2094 38.3123C62.2094 37.7085 62.02 37.2159 61.6492 36.8345C61.2863 36.4373 60.8129 36.2386 60.2527 36.2386C59.6925 36.2386 59.2586 36.4373 58.8957 36.8345C58.5406 37.2238 58.367 37.7164 58.367 38.3123C58.367 38.9081 58.5485 39.4007 58.8957 39.8059C59.2586 40.1952 59.7083 40.3938 60.2527 40.3938C60.7971 40.3938 61.2863 40.1952 61.6492 39.8059Z" fill="white"/>
<path d="M64.2423 38.3358C64.2423 37.4937 64.4947 36.8263 64.9839 36.3099C65.4731 35.7934 66.1122 35.5312 66.8696 35.5312C67.5876 35.5312 68.1635 35.7855 68.6132 36.286C69.063 36.7786 69.2918 37.3983 69.2918 38.1451C69.2918 38.2643 69.2918 38.3755 69.2839 38.4788H65.0155C65.0549 39.6547 65.7808 40.4095 66.9011 40.4095C67.8479 40.4095 68.4949 40.0599 68.8342 39.6547V40.5366C68.3213 40.9338 67.6744 41.1324 66.9011 41.1324C66.1279 41.1324 65.4652 40.8782 64.9681 40.3856C64.479 39.8851 64.2344 39.2098 64.2344 38.3755V38.3199L64.2423 38.3358ZM68.4712 37.8035C68.4712 37.3824 68.3134 37.0249 68.0057 36.723C67.6901 36.4211 67.3193 36.2622 66.8775 36.2622C66.3962 36.2622 65.978 36.4131 65.6388 36.715C65.2916 37.017 65.1101 37.3745 65.0786 37.8035H68.4791H68.4712Z" fill="white"/>
<path d="M75.0312 38.3124C75.0312 37.5099 75.2995 36.8505 75.8439 36.3182C76.3883 35.7859 77.0432 35.5078 77.8243 35.5078C78.6054 35.5078 79.2602 35.7779 79.8046 36.3182C80.349 36.8505 80.6173 37.5179 80.6173 38.3124C80.6173 39.1069 80.349 39.7822 79.8046 40.3225C79.2602 40.8548 78.6054 41.1249 77.8243 41.1249C77.0432 41.1249 76.3883 40.8627 75.8439 40.3225C75.2995 39.7901 75.0312 39.1148 75.0312 38.3124ZM75.8045 38.3124C75.8045 38.9083 75.9938 39.4008 76.3804 39.806C76.767 40.1953 77.2483 40.394 77.8322 40.394C78.416 40.394 78.8973 40.1953 79.2839 39.806C79.6705 39.4088 79.8598 38.9162 79.8598 38.3124C79.8598 37.7086 79.6705 37.216 79.2839 36.8346C78.8973 36.4374 78.416 36.2387 77.8322 36.2387C77.2483 36.2387 76.767 36.4374 76.3804 36.8346C75.9938 37.2239 75.8045 37.7165 75.8045 38.3124Z" fill="white"/>
<path d="M82.4067 40.9664V36.3981H81.5625V35.6751H82.4067V35.2302C82.4067 34.5469 82.5724 34.0782 82.9196 33.7921C83.1484 33.5935 83.5034 33.4902 83.9926 33.4902C84.1504 33.4902 84.2845 33.4982 84.4029 33.53V34.2688C84.2687 34.2371 84.1109 34.2132 83.9137 34.2132C83.4008 34.2132 83.1799 34.4675 83.1799 35.1269V35.6751H84.174V36.3981H83.1799V40.9664H82.4067Z" fill="white"/>
<path d="M88.9609 40.9659V33.6406H89.7341V40.9659H88.9609Z" fill="white"/>
<path d="M91.3726 34.642C91.1675 34.4354 91.1675 34.0938 91.3726 33.8952C91.5777 33.6886 91.8933 33.6886 92.1064 33.8952C92.3115 34.0938 92.3115 34.4275 92.1064 34.642C91.9012 34.8406 91.5856 34.8406 91.3726 34.642ZM91.3489 40.9662V35.6748H92.1221V40.9662H91.3489Z" fill="white"/>
<path d="M94.3051 40.9664V36.3981H93.4609V35.6751H94.3051V35.2302C94.3051 34.5469 94.4708 34.0782 94.818 33.7921C95.0468 33.5935 95.4018 33.4902 95.891 33.4902C96.0488 33.4902 96.1829 33.4982 96.3013 33.53V34.2688C96.1672 34.2371 96.0094 34.2132 95.8121 34.2132C95.2993 34.2132 95.0784 34.4675 95.0784 35.1269V35.6751H96.0725V36.3981H95.0784V40.9664H94.3051Z" fill="white"/>
<path d="M96.8516 38.3358C96.8516 37.4937 97.1041 36.8263 97.5933 36.3099C98.0825 35.7934 98.7215 35.5312 99.479 35.5312C100.197 35.5312 100.773 35.7855 101.223 36.286C101.672 36.7786 101.901 37.3983 101.901 38.1451C101.901 38.2643 101.901 38.3755 101.893 38.4788H97.6249C97.6643 39.6547 98.3902 40.4095 99.5105 40.4095C100.457 40.4095 101.104 40.0599 101.444 39.6547V40.5366C100.931 40.9338 100.284 41.1324 99.5105 41.1324C98.7373 41.1324 98.0746 40.8782 97.5775 40.3856C97.0883 39.8851 96.8438 39.2098 96.8438 38.3755V38.3199L96.8516 38.3358ZM101.081 37.8035C101.081 37.3824 100.923 37.0249 100.615 36.723C100.3 36.4211 99.9287 36.2622 99.4869 36.2622C99.0056 36.2622 98.5874 36.4131 98.2481 36.715C97.901 37.017 97.7195 37.3745 97.688 37.8035H101.088H101.081Z" fill="white"/>
<path fill-rule="evenodd" clip-rule="evenodd" d="M4.86595 22.9314C5.24466 23.8927 7.17768 22.5818 7.60373 22.0415C8.86611 20.4605 8.66886 17.64 8.52684 15.7889C8.4874 15.2804 8.50317 14.3826 8.05345 14.5574C7.83254 14.6448 7.66685 15.0261 7.46171 15.4869L6.15989 18.4743C5.74172 19.4356 4.5188 22.0654 4.86595 22.9314Z" fill="white"/>
<path fill-rule="evenodd" clip-rule="evenodd" d="M14.4101 2.8153C13.2424 2.99804 11.625 3.30789 11.6407 4.81744C11.6407 5.73905 12.0431 9.00443 12.6822 9.26662C13.5816 9.63209 16.8559 2.44189 14.4101 2.82325" fill="white"/>
<path fill-rule="evenodd" clip-rule="evenodd" d="M71.7175 14.2718C72.3092 14.2162 72.5222 13.5965 72.7195 13.0324C73.1219 11.936 73.6663 10.6171 73.1534 9.40153C72.9167 8.83743 72.6011 8.43224 71.8121 8.45608C69.8634 8.52758 70.0133 9.21085 70.3841 10.9985C70.5892 11.9757 71.11 13.8428 71.7096 14.2718" fill="white"/>
<path fill-rule="evenodd" clip-rule="evenodd" d="M30.8467 17.7516C30.965 18.2998 31.257 18.4905 31.7225 18.713C32.2905 18.9831 32.5746 19.0387 33.3399 19.0467C35.6753 19.0785 34.6101 18.1092 34.1131 16.7903C33.9474 16.3454 33.8527 13.3978 31.9355 14.8915C31.6593 15.106 31.4779 15.3046 31.3516 15.4794C30.7362 16.3295 30.4916 16.0514 30.8625 17.7437" fill="white"/>
<path fill-rule="evenodd" clip-rule="evenodd" d="M54.4512 18.4902C55.1691 17.3222 54.1671 15.4472 53.7963 14.6368C53.4571 13.8821 51.9343 14.9229 51.3189 16.4245C51.1374 16.8614 51.0033 17.2984 50.956 17.6718C50.8061 18.8238 52.2736 18.9351 53.1809 18.9907C53.678 19.0225 54.175 18.9271 54.4433 18.4902" fill="white"/>
<path fill-rule="evenodd" clip-rule="evenodd" d="M37.2073 21.6212C36.4262 22.0423 34.7457 22.5905 34.0514 22.7573C32.8521 23.0513 30.714 23.1307 29.5384 22.7653C28.923 22.5746 27.7395 21.8278 27.3213 21.3352C25.8854 19.6349 25.5619 18.3796 26.3745 16.1948C27.4555 13.2949 30.9507 10.7048 33.9804 10.3393C35.0061 10.2202 36.1106 10.1407 37.0969 10.5141C38.0831 10.8796 38.6354 11.3245 38.9352 12.3653C39.1798 13.2234 39.1482 14.3754 39.1167 15.2652C39.0772 16.2583 38.9825 17.2832 39.0062 18.2764C39.0299 18.2684 39.0457 18.2525 39.0693 18.2446C39.448 18.0936 39.6926 18.3479 39.6768 18.7372C39.669 18.9914 39.5979 19.4522 39.5112 19.6826C39.448 19.8574 39.3928 19.9289 39.3139 20.056C39.3849 20.2547 39.4954 20.4294 39.5743 20.6281C39.7005 20.9459 39.8425 21.2557 40.0161 21.5497C40.1187 21.7324 40.2449 21.9152 40.3396 22.0979C40.4658 22.3283 40.5842 22.6461 40.5132 22.9162C40.4106 23.3373 39.9924 23.3691 39.6374 23.2737C39.1403 23.1387 38.6117 22.8527 38.1936 22.5507C37.9174 22.3521 37.586 22.1058 37.3651 21.8357C37.302 21.7563 37.2547 21.6847 37.1994 21.6132M36.158 19.4204C35.8897 18.2446 35.7477 17.0687 35.7082 15.8611C35.6925 15.4241 35.6925 14.9871 35.6925 14.5502C35.6925 14.2721 35.6925 13.9622 35.653 13.6921C35.5741 13.1439 34.8325 12.9135 34.3591 12.9453C33.6253 13.0009 33.6332 12.9373 32.8995 13.1836C31.211 13.7477 29.0965 15.6148 28.9861 17.5136C28.9151 18.7451 30.3589 20.064 31.503 20.2467C32.2209 20.3659 34.9745 20.0243 35.5978 19.6747H35.6057L36.158 19.4204Z" fill="white"/>
<path fill-rule="evenodd" clip-rule="evenodd" d="M54.4449 10.4738C54.4292 10.2037 54.3897 9.91765 54.3739 9.6793C54.3108 8.87686 54.2398 8.07442 54.1767 7.27198C54.1057 6.42981 54.0426 5.58764 53.9794 4.75342C53.94 4.237 53.8927 3.68085 53.8927 3.16443C53.8927 2.47322 53.8769 1.1623 54.1688 0.534646C54.5238 -0.22807 55.2339 -0.0453355 55.8336 0.288353C56.6147 0.725326 56.6383 2.67979 56.7251 3.49017C56.8829 4.8726 57.5378 6.17557 57.4825 7.59772C57.5851 9.46478 57.6561 11.3319 57.7902 13.2069C57.8613 14.2159 57.948 15.2328 58.0743 16.2418C58.1532 16.8774 58.2479 17.5607 58.4057 18.1884C58.4845 18.1407 58.5634 18.093 58.6266 18.0612C58.8869 17.9262 59.1946 17.7911 59.4866 17.7593C59.7706 17.7355 60.0783 17.8229 60.2124 18.093C60.4097 18.4903 60.0941 18.9908 59.8653 19.3006C59.739 19.4754 59.6522 19.682 59.5497 19.8727C59.4156 20.111 59.2578 20.3017 59.0526 20.4686C59.1631 21.4299 60.1493 23.1619 59.5023 23.869L59.4866 23.8849H59.4708C58.8001 24.4728 58.1058 23.6624 57.7508 23.146C57.5535 22.852 57.3721 22.5422 57.2064 22.2323C57.1591 22.1449 57.088 22.0019 57.017 21.8828C56.0939 22.2482 55.2418 22.6773 54.2714 22.9633C52.9617 23.3526 51.6598 23.432 50.3422 23.0189C49.0009 22.6058 48.5197 22.0178 47.6281 21.0009C47.1232 20.4209 46.8943 20.1349 46.6892 19.396C45.9712 16.8298 47.3046 13.9934 49.2455 12.3409C50.4448 11.3239 52.2042 10.7042 53.7427 10.4659C54.1057 10.4102 54.2398 10.4261 54.4213 10.4897M54.7369 12.5951C53.2457 12.6507 52.149 13.0956 51.005 14.1046C49.3481 15.5745 48.922 17.9659 50.5947 19.6105C51.2338 20.2382 51.5099 20.3812 52.4251 20.5162C53.435 20.6672 55.2497 20.0713 56.1492 19.4278C55.5337 17.2032 55.0682 14.8753 54.7369 12.5872V12.5951Z" fill="white"/>
<path fill-rule="evenodd" clip-rule="evenodd" d="M78.9654 16.9175C78.9654 16.1865 79.0443 15.5509 79.1311 14.8279C79.2574 13.6839 79.7544 12.1505 80.3856 11.1891V11.1653C80.93 10.4582 81.6243 9.74315 82.3265 9.2029C83.1313 8.58319 84.0307 8.18594 85.0091 7.9317C86.5791 7.51062 87.7389 8.4958 88.7646 9.53659C89.3011 10.0848 89.5063 11.0064 89.7114 11.7215C89.9481 12.5557 89.6956 13.1357 89.3406 13.8904C88.5358 15.6145 86.4923 16.8062 84.7329 17.3226C84.1491 17.5213 83.5415 17.6881 82.9419 17.8391C82.5316 17.9424 82.0425 18.0695 81.5927 18.141C82.1529 19.6187 83.0839 20.2464 84.7802 20.3656C85.8533 20.445 86.9894 20.7469 88.0545 20.7151C88.5122 20.6993 89.0013 20.6436 89.4589 20.6516C89.885 20.6675 90.3426 20.8343 90.2006 21.3587C89.9402 22.3836 87.3839 22.9318 86.4687 23.0907C85.2773 23.2973 84.0702 23.0351 82.934 22.6617C81.1904 22.0896 79.7465 20.4053 79.21 18.6495C79.0838 18.6653 78.9654 18.6812 78.8392 18.713C78.4289 18.8084 78.1212 18.9434 77.7977 18.57L77.7109 18.4667L77.7267 18.3317C77.7662 18.0298 78.1133 17.6881 78.2948 17.4339C78.4841 17.1638 78.7208 17.0764 78.9496 16.9175M81.3245 16.258C82.0661 16.0912 82.8946 15.8926 83.5652 15.6145C84.7171 15.1298 86.5239 14.5419 86.9263 13.2151C87.1788 12.365 87.1078 11.2448 86.0821 11.0064C85.6402 10.9031 85.1747 11.1494 84.7724 11.3242C84.1412 11.5943 83.3443 11.9598 82.8393 12.4286C82.366 12.8576 82.0346 13.3978 81.7979 13.9937C81.5138 14.7246 81.3245 15.4874 81.3324 16.266L81.3245 16.258Z" fill="white"/>
<path fill-rule="evenodd" clip-rule="evenodd" d="M20.6963 5.49976C21.1223 6.2307 21.4537 7.46217 21.6746 8.2805C22.0849 9.77415 22.432 11.2837 22.7792 12.7932C23.5445 16.1063 24.2704 19.5147 25.2645 22.7642C25.446 23.2568 25.6432 23.8129 25.7221 24.3293C25.7616 24.5756 25.7852 24.8775 25.6827 25.1159C25.5406 25.4337 25.2251 25.5131 24.9095 25.4178C24.5623 25.3145 24.3651 25.1 24.1441 24.8299C23.9311 24.5677 23.584 24.2102 23.4341 23.9162C23.0711 23.2091 22.7319 22.4702 22.4952 21.7075C21.2565 17.8065 19.8126 13.977 18.5187 10.0919C18.4792 9.98072 18.2346 9.31334 18.0768 9.32129C17.9269 9.32129 17.6587 9.86949 17.6113 9.98867C16.9012 11.6333 16.4673 13.4209 15.7493 15.0655C15.6152 15.4786 15.4653 15.8759 15.3075 16.2811C15.0392 16.9643 14.8814 17.7112 14.4317 18.3229C13.7769 19.2128 12.8853 19.1333 11.9938 18.609C11.6703 18.4183 11.6466 18.3388 11.473 18.021C10.8813 16.9485 10.3921 15.7408 9.97395 14.5888C9.48478 13.2223 9.06662 11.7922 8.77469 10.37C8.71947 10.092 8.40387 8.44734 8.20663 7.93886C8.18296 7.97064 8.1514 8.01037 8.14351 8.02626C7.77268 8.56652 7.42553 10.084 7.25195 10.7355C6.79434 12.4595 6.30517 14.1359 5.66609 15.8123C5.0349 17.4728 4.42738 19.2922 3.50427 20.8097C3.15712 21.3817 2.84152 22.0332 2.43914 22.5655L2.42336 22.5814L2.40758 22.5973C2.14721 22.8595 1.55548 23.4951 1.26355 23.6381C0.30888 24.1228 -0.0224959 23.5348 0.00117372 22.6529C0.0248433 21.6439 0.577133 20.7779 0.861168 19.8325C1.61859 17.6397 2.38391 15.4548 3.02299 13.2382C3.70941 10.8467 4.22225 8.44734 4.59307 5.9844V5.96057C4.82977 4.91183 5.00334 3.78365 5.50041 2.81436C6.15526 1.53522 7.17306 1.20154 8.40387 2.02781C9.12974 2.51246 9.61891 3.60886 9.91084 4.4113C10.5973 6.27837 11.544 12.6423 12.6486 13.6672C12.6802 13.691 12.767 13.7705 12.8143 13.7546C12.909 13.7149 13.0273 13.5321 13.0826 13.4527C13.4218 12.8965 13.6901 12.1418 13.9662 11.5459C14.8025 9.72648 15.4416 7.8038 16.1438 5.92879C16.4357 5.14224 16.8855 4.20473 17.4851 3.61681C18.0453 3.06066 18.7475 2.8382 19.426 3.33873C19.9704 3.73598 20.3807 4.91183 20.7042 5.53154" fill="white"/>
<path fill-rule="evenodd" clip-rule="evenodd" d="M44.1446 5.17498C44.1998 5.64374 44.1682 6.11249 44.1446 6.58124C44.0972 7.43135 44.0578 8.27352 44.0499 9.13157C44.0341 11.7296 44.2471 14.2561 44.5075 16.8382C44.6258 17.9982 45.1308 19.1025 45.2413 20.2784C45.2886 20.7709 45.328 21.3668 45.2413 21.8594C45.1545 22.3043 44.9572 22.932 44.5391 23.1624C44.0814 23.4166 43.5055 23.1306 43.0637 22.9558C42.4088 22.6936 42.5271 22.2487 42.2668 21.7402C41.1938 19.603 41.1385 15.8927 41.1701 13.5013C41.2017 11.2449 41.3279 8.9409 41.5409 6.70042C41.6593 5.49278 42.0459 1.00388 43.2609 0.41595H43.2688L43.2767 0.408005C43.6081 0.280885 43.9394 0.320611 44.1051 0.67019C44.255 0.980043 44.2156 1.49647 44.1919 1.83015C44.1446 2.41808 44.1761 2.92656 44.2156 3.50654C44.255 4.09447 44.2471 4.595 44.1446 5.17498Z" fill="white"/>
<path fill-rule="evenodd" clip-rule="evenodd" d="M61.8882 12.1111C61.9828 10.6413 62.1643 9.17946 62.4562 7.73347C62.6061 7.01048 63.2531 6.62118 63.8212 7.18527C64.1683 7.5269 64.0973 8.51208 64.1841 8.99672C64.2946 9.60054 64.2946 10.1487 64.2709 10.7526C64.1762 13.1599 64.6259 15.5752 65.0283 17.9348C65.1309 18.5227 65.2019 19.1345 65.123 19.7304C65.0835 20.072 64.9968 20.3819 64.9968 20.7314C64.9968 21.2717 64.8311 21.8517 64.547 22.3045C64.3261 22.6621 64.1447 23.2897 63.6397 23.242C62.8192 23.1705 62.4562 21.804 62.33 21.1525C62.0144 19.6112 61.896 17.9666 61.8408 16.3935C61.7935 14.9793 61.8014 13.5333 61.896 12.1191" fill="white"/>
<path fill-rule="evenodd" clip-rule="evenodd" d="M66.3537 10.1083C66.3143 9.72696 66.2275 8.98014 66.4011 8.63851C66.6693 8.10619 67.198 8.45577 67.4899 8.74179C67.7187 8.9722 67.8528 9.54423 67.9948 9.85408C68.4525 10.879 68.7838 11.9913 69.1389 13.0559C69.4702 14.0411 70.4644 16.9172 71.1034 17.6084C71.277 17.7991 71.4427 18.1486 71.5611 18.379C71.6242 18.5141 71.7899 18.8716 71.8845 18.9749C71.9634 19.0544 72.0108 19.1338 72.0976 19.0464C72.2554 18.8955 72.421 18.53 72.5157 18.3314C72.6183 18.1168 72.7761 17.9103 72.8944 17.6958C73.0838 17.3621 73.21 17.0204 73.3047 16.647C73.715 14.9706 74.3146 13.334 74.859 11.6973C75.2693 10.4897 75.6717 9.2741 76.1845 8.10619C76.4528 7.50237 76.8236 5.94516 77.7467 6.30269C78.0307 6.41392 78.0702 6.71582 78.0623 6.98595C78.0544 7.33553 77.9913 7.71689 77.944 8.06647C77.7783 9.21054 77.4548 10.299 77.1707 11.4113C76.9577 12.2773 76.8157 13.1989 76.6579 14.0808C76.4528 15.2408 76.2476 16.4087 75.9873 17.5607C75.8216 18.2996 75.4271 19.0385 75.0405 19.69C74.8669 19.976 74.6854 20.262 74.504 20.548C74.3935 20.7228 74.2594 20.9214 74.1726 21.12C73.644 22.2006 73.3915 23.4876 71.8451 23.2493C70.8825 23.0983 70.2829 22.431 69.7464 21.6762C69.2099 20.9214 68.9495 20.0395 68.5945 19.1974C68.3341 18.5935 68.1526 17.9262 67.9869 17.2906C67.7897 16.5437 67.6161 15.789 67.411 15.0342C67.127 13.9775 66.7482 12.8096 66.5826 11.737C66.4879 11.1968 66.4011 10.6565 66.338 10.1083" fill="white"/>
<path fill-rule="evenodd" clip-rule="evenodd" d="M63.794 5.83403C63.4705 6.05648 63.1391 5.97704 62.934 5.65129C62.8314 5.49239 62.8077 5.33349 62.7289 5.19843C62.429 4.74556 62.4448 4.07819 62.4448 3.55382C62.4448 2.98973 62.3817 2.41769 62.6263 1.88538C62.9498 1.18622 63.5336 0.860477 64.291 1.09088C64.6303 1.19417 64.7487 1.27362 64.8986 1.59141C64.9617 1.72648 65.0169 2.29852 65.0406 2.48125C65.1668 3.38698 64.5672 5.30966 63.8019 5.83403" fill="white"/>
<path fill-rule="evenodd" clip-rule="evenodd" d="M96.0626 15.3989C95.2737 14.9699 94.5636 14.4455 94.0034 13.7384C92.9304 12.3719 92.7095 10.2665 93.7983 8.83636C94.4926 7.92269 96.1889 7.06463 97.3171 6.92162C98.3981 6.78656 99.3606 7.16792 100.221 7.81146C100.568 8.07364 101.041 8.65362 101.238 9.05087C101.483 9.54346 101.941 10.3459 101.341 10.767L101.286 10.8067H101.223C100.836 10.8941 100.655 10.6796 100.394 10.4412C100.126 10.187 99.6683 9.96454 99.4553 9.69441C99.1634 9.321 98.6111 9.17799 98.1614 9.17005C97.4749 9.14621 96.8595 9.31306 96.3151 9.75797C95.6445 10.3141 95.3052 10.9736 95.6997 11.8237C96.2757 13.079 98.4138 13.651 99.5263 14.4058C99.8024 14.5965 100.031 14.811 100.3 15.0096C102.122 16.4159 102.548 19.5462 101.262 21.453C100.828 22.0886 99.976 22.7957 99.2423 23.0499C97.538 23.6537 95.3289 23.1293 93.8456 22.1601C92.8357 21.5006 92.3544 20.6664 91.7785 19.6495C91.5654 19.2681 91.3761 18.6881 91.3208 18.2511C91.2419 17.6155 91.4392 16.9879 92.1966 17.0197C92.9698 17.0515 93.4117 17.7268 93.8535 18.267C94.0744 18.5372 94.4452 18.9503 94.7056 19.1648C95.2737 19.6415 95.6918 19.7766 96.394 19.9673C96.7017 20.0546 96.9463 20.2294 97.2304 20.3168C97.6485 20.444 98.2008 20.3486 98.619 20.2612C99.1081 20.1579 99.3448 19.7289 99.4158 19.2601C99.5105 18.6802 99.3685 18.0207 99.0766 17.5202C98.7531 16.9641 98.2876 16.6542 97.8221 16.249C97.3724 15.8835 96.5992 15.7008 96.0705 15.3751" fill="white"/>
<path fill-rule="evenodd" clip-rule="evenodd" d="M95.1893 16.2172C94.858 16.2172 94.4003 16.2013 94.2662 16.4714C93.9427 17.1229 95.1183 18.3623 95.7337 18.7754C96.0967 19.0217 97.004 19.4349 97.4695 19.1488C98.866 18.2908 96.5464 16.1854 95.1893 16.2172Z" fill="white"/>
<path fill-rule="evenodd" clip-rule="evenodd" d="M82.9638 13.9292C82.5851 14.5171 82.6324 14.9462 82.8849 14.9144C83.6581 14.827 84.8337 14.247 85.5201 13.7862C86.317 13.2539 86.4274 12.7375 85.9777 12.3879C85.3623 11.9112 84.5812 11.9827 84.1552 12.3879C83.8396 12.6819 83.5003 13.1029 82.9638 13.9292Z" fill="white"/>
</svg>
