<svg width="316" height="339" viewBox="0 0 316 339" fill="none" xmlns="http://www.w3.org/2000/svg">
<g clip-path="url(#clip0_928_15491)">
<path d="M0.791504 0.799805H315.792V338.8H0.791504V0.799805Z" fill="#F6F6F6"/>
<path d="M79.6815 289.732C79.6305 289.67 79.5795 289.639 79.5285 289.639C79.4888 289.639 79.4605 289.653 79.4435 289.681C79.4322 289.704 79.4265 289.744 79.4265 289.8L79.5965 295.716C79.6248 296.51 79.6843 297.091 79.775 297.459C79.8713 297.827 80.0527 298.113 80.319 298.317C80.591 298.516 81.0273 298.694 81.628 298.853V298.98H77.939V298.853C78.1827 298.751 78.3612 298.609 78.4745 298.428C78.5935 298.241 78.6757 297.949 78.721 297.552C78.7663 297.15 78.7947 296.538 78.806 295.716L78.891 289.299C78.891 289.169 78.8712 289.055 78.8315 288.959C78.7975 288.857 78.7267 288.729 78.619 288.576C78.3017 288.117 77.8965 287.636 77.4035 287.131V287.08H79.571C79.8827 287.522 80.115 287.848 80.268 288.058C80.4267 288.268 80.6307 288.528 80.88 288.84L86.677 296.099C86.7507 296.184 86.813 296.226 86.864 296.226C86.898 296.226 86.9263 296.212 86.949 296.184C86.9773 296.156 86.9887 296.116 86.983 296.065L86.779 290.344C86.7507 289.551 86.6883 288.97 86.592 288.602C86.5013 288.234 86.3228 287.95 86.0565 287.752C85.7902 287.548 85.3567 287.367 84.756 287.208V287.08H88.4365V287.208C88.1928 287.31 88.0115 287.454 87.8925 287.641C87.7792 287.823 87.6998 288.115 87.6545 288.517C87.6092 288.914 87.5808 289.523 87.5695 290.344L87.51 295.623C87.51 296.96 87.5383 298.108 87.595 299.065H87.17L79.6815 289.732ZM90.2785 298.853C90.5165 298.757 90.6893 298.615 90.797 298.428C90.9046 298.235 90.9755 297.941 91.0095 297.544C91.0435 297.147 91.0605 296.527 91.0605 295.682V290.378C91.0605 289.534 91.0435 288.914 91.0095 288.517C90.9755 288.12 90.9046 287.828 90.797 287.641C90.6893 287.449 90.5165 287.304 90.2785 287.208V287.08H96.458L98.005 286.995C98.0163 287.483 98.0503 287.919 98.107 288.304C98.1693 288.684 98.2996 289.268 98.498 290.055H98.3705C98.0135 289.341 97.6735 288.823 97.3505 288.5C97.0331 288.177 96.6506 287.964 96.203 287.862C95.7553 287.76 95.1008 287.709 94.2395 287.709C93.6445 287.709 93.0976 287.749 92.599 287.828V291.806L94.52 291.755C95.0243 291.738 95.3955 291.702 95.6335 291.645C95.8715 291.588 96.0585 291.483 96.1945 291.33C96.3305 291.177 96.4693 290.925 96.611 290.574H96.7215C96.7101 290.914 96.7045 291.163 96.7045 291.322C96.7045 292.104 96.7583 292.94 96.866 293.829H96.747C96.5713 293.393 96.407 293.081 96.254 292.894C96.101 292.702 95.9026 292.574 95.659 292.512C95.4153 292.444 95.0413 292.401 94.537 292.384L92.599 292.333V297.297C92.599 297.581 92.6358 297.793 92.7095 297.935C92.7831 298.077 92.9418 298.181 93.1855 298.249C93.4291 298.317 93.8088 298.351 94.3245 298.351C95.1801 298.351 95.8545 298.261 96.3475 298.079C96.8405 297.898 97.2768 297.584 97.6565 297.136C98.0361 296.683 98.4895 295.974 99.0165 295.011H99.144C98.8776 295.884 98.6821 296.552 98.5575 297.017C98.4385 297.482 98.3591 297.847 98.3195 298.113C98.2798 298.38 98.2571 298.669 98.2515 298.98H90.2785V298.853ZM101.519 290.378C101.139 289.517 100.85 288.891 100.652 288.5C100.453 288.103 100.272 287.814 100.108 287.633C99.9489 287.452 99.7562 287.31 99.5295 287.208V287.08H103.134V287.208C102.652 287.361 102.411 287.687 102.411 288.185C102.411 288.452 102.462 288.738 102.564 289.044C102.672 289.35 102.833 289.755 103.049 290.259L105.684 296.532C105.723 296.623 105.78 296.668 105.854 296.668C105.933 296.668 105.987 296.62 106.015 296.524L108.013 290.999C108.234 290.387 108.392 289.914 108.489 289.579C108.585 289.245 108.633 288.939 108.633 288.661C108.633 288.293 108.52 287.99 108.293 287.752C108.066 287.514 107.687 287.333 107.154 287.208V287.08H111.311V287.208C111.078 287.31 110.88 287.452 110.716 287.633C110.557 287.814 110.378 288.103 110.18 288.5C109.982 288.891 109.693 289.517 109.313 290.378L105.497 299.108H105.344L101.519 290.378ZM112.392 298.853C112.63 298.757 112.803 298.615 112.91 298.428C113.018 298.235 113.089 297.941 113.123 297.544C113.157 297.147 113.174 296.527 113.174 295.682V290.378C113.174 289.534 113.157 288.914 113.123 288.517C113.089 288.12 113.018 287.828 112.91 287.641C112.803 287.449 112.63 287.304 112.392 287.208V287.08H118.571L120.118 286.995C120.13 287.483 120.164 287.919 120.22 288.304C120.283 288.684 120.413 289.268 120.611 290.055H120.484C120.127 289.341 119.787 288.823 119.464 288.5C119.146 288.177 118.764 287.964 118.316 287.862C117.869 287.76 117.214 287.709 116.353 287.709C115.758 287.709 115.211 287.749 114.712 287.828V291.806L116.633 291.755C117.138 291.738 117.509 291.702 117.747 291.645C117.985 291.588 118.172 291.483 118.308 291.33C118.444 291.177 118.583 290.925 118.724 290.574H118.835C118.823 290.914 118.818 291.163 118.818 291.322C118.818 292.104 118.872 292.94 118.979 293.829H118.86C118.685 293.393 118.52 293.081 118.367 292.894C118.214 292.702 118.016 292.574 117.772 292.512C117.529 292.444 117.155 292.401 116.65 292.384L114.712 292.333V297.297C114.712 297.581 114.749 297.793 114.823 297.935C114.896 298.077 115.055 298.181 115.299 298.249C115.542 298.317 115.922 298.351 116.438 298.351C117.293 298.351 117.968 298.261 118.461 298.079C118.954 297.898 119.39 297.584 119.77 297.136C120.149 296.683 120.603 295.974 121.13 295.011H121.257C120.991 295.884 120.795 296.552 120.671 297.017C120.552 297.482 120.472 297.847 120.433 298.113C120.393 298.38 120.37 298.669 120.365 298.98H112.392V298.853ZM122.735 298.853C122.973 298.757 123.145 298.615 123.253 298.428C123.361 298.235 123.432 297.941 123.466 297.544C123.5 297.147 123.517 296.527 123.517 295.682V290.378C123.517 289.534 123.5 288.914 123.466 288.517C123.432 288.12 123.361 287.828 123.253 287.641C123.145 287.449 122.973 287.304 122.735 287.208V287.08H126.713C127.636 287.08 128.441 287.211 129.127 287.471C129.812 287.726 130.342 288.109 130.716 288.619C131.096 289.129 131.286 289.752 131.286 290.489C131.286 291.248 131.053 291.917 130.589 292.495C130.124 293.073 129.529 293.515 128.804 293.821C128.724 293.855 128.685 293.895 128.685 293.94C128.685 293.985 128.73 294.028 128.821 294.067C129.189 294.254 129.495 294.538 129.739 294.917C129.988 295.297 130.249 295.855 130.521 296.592C130.764 297.193 130.971 297.635 131.141 297.918C131.317 298.201 131.495 298.405 131.677 298.53C131.864 298.649 132.124 298.757 132.459 298.853V298.98H130.886C130.563 298.98 130.317 298.961 130.147 298.921C129.982 298.881 129.838 298.791 129.713 298.649C129.594 298.502 129.478 298.266 129.365 297.943L128.625 295.903C128.472 295.467 128.313 295.147 128.149 294.943C127.985 294.733 127.767 294.589 127.495 294.509C127.223 294.424 126.826 294.371 126.305 294.348L125.055 294.305V295.597C125.055 296.459 125.072 297.096 125.106 297.51C125.146 297.918 125.217 298.221 125.319 298.419C125.426 298.612 125.599 298.757 125.837 298.853V298.98H122.735V298.853ZM127.104 293.71C127.478 293.699 127.775 293.665 127.996 293.608C128.217 293.546 128.43 293.436 128.634 293.277C128.974 293.028 129.251 292.69 129.467 292.265C129.682 291.84 129.79 291.376 129.79 290.871C129.79 289.749 129.481 288.942 128.863 288.449C128.251 287.956 127.415 287.709 126.356 287.709C125.919 287.709 125.486 287.746 125.055 287.82V293.77L127.104 293.71ZM137.278 298.853C137.516 298.757 137.688 298.615 137.796 298.428C137.904 298.235 137.975 297.941 138.009 297.544C138.043 297.147 138.06 296.527 138.06 295.682V290.378C138.06 289.534 138.043 288.914 138.009 288.517C137.975 288.12 137.904 287.828 137.796 287.641C137.688 287.449 137.516 287.304 137.278 287.208V287.08H143.287L144.834 286.995C144.845 287.483 144.879 287.916 144.936 288.296C144.998 288.67 145.126 289.234 145.319 289.987H145.2C144.843 289.296 144.505 288.795 144.188 288.483C143.876 288.166 143.508 287.959 143.083 287.862C142.658 287.76 142.043 287.709 141.239 287.709C140.644 287.709 140.097 287.749 139.598 287.828V293.379L141.519 293.328C141.961 293.317 142.29 293.283 142.505 293.226C142.726 293.164 142.902 293.056 143.032 292.903C143.162 292.744 143.298 292.492 143.44 292.146H143.551C143.539 292.486 143.534 292.736 143.534 292.894C143.534 293.671 143.587 294.504 143.695 295.393H143.576C143.429 294.968 143.279 294.66 143.126 294.467C142.978 294.269 142.788 294.138 142.556 294.076C142.329 294.008 141.989 293.968 141.536 293.957L139.598 293.906V295.682C139.598 296.521 139.621 297.142 139.666 297.544C139.711 297.941 139.799 298.232 139.93 298.419C140.06 298.606 140.272 298.751 140.567 298.853V298.98H137.278V298.853ZM152.003 299.15C150.937 299.15 149.963 298.89 149.079 298.368C148.2 297.841 147.503 297.113 146.988 296.184C146.472 295.249 146.214 294.198 146.214 293.03C146.214 291.863 146.472 290.815 146.988 289.885C147.503 288.95 148.2 288.222 149.079 287.701C149.963 287.174 150.937 286.91 152.003 286.91C153.068 286.91 154.04 287.174 154.918 287.701C155.802 288.222 156.499 288.95 157.009 289.885C157.525 290.815 157.783 291.863 157.783 293.03C157.783 294.198 157.525 295.249 157.009 296.184C156.499 297.113 155.802 297.841 154.918 298.368C154.04 298.89 153.068 299.15 152.003 299.15ZM152.351 298.343C153.076 298.343 153.734 298.181 154.323 297.858C154.912 297.53 155.383 297.014 155.734 296.311C156.091 295.609 156.27 294.725 156.27 293.659C156.27 292.56 156.074 291.557 155.683 290.65C155.298 289.744 154.754 289.03 154.051 288.508C153.354 287.981 152.555 287.718 151.654 287.718C150.929 287.718 150.269 287.882 149.674 288.211C149.084 288.534 148.611 289.047 148.254 289.749C147.903 290.452 147.727 291.336 147.727 292.401C147.727 293.501 147.92 294.504 148.305 295.41C148.696 296.317 149.243 297.034 149.946 297.561C150.648 298.082 151.45 298.343 152.351 298.343ZM159.607 298.853C159.845 298.757 160.017 298.615 160.125 298.428C160.233 298.235 160.304 297.941 160.338 297.544C160.372 297.147 160.389 296.527 160.389 295.682V290.378C160.389 289.534 160.372 288.914 160.338 288.517C160.304 288.12 160.233 287.828 160.125 287.641C160.017 287.449 159.845 287.304 159.607 287.208V287.08H163.585C164.508 287.08 165.313 287.211 165.999 287.471C166.684 287.726 167.214 288.109 167.588 288.619C167.968 289.129 168.158 289.752 168.158 290.489C168.158 291.248 167.925 291.917 167.461 292.495C166.996 293.073 166.401 293.515 165.676 293.821C165.596 293.855 165.557 293.895 165.557 293.94C165.557 293.985 165.602 294.028 165.693 294.067C166.061 294.254 166.367 294.538 166.611 294.917C166.86 295.297 167.121 295.855 167.393 296.592C167.636 297.193 167.843 297.635 168.013 297.918C168.189 298.201 168.367 298.405 168.549 298.53C168.736 298.649 168.996 298.757 169.331 298.853V298.98H167.758C167.435 298.98 167.189 298.961 167.019 298.921C166.854 298.881 166.71 298.791 166.585 298.649C166.466 298.502 166.35 298.266 166.237 297.943L165.497 295.903C165.344 295.467 165.185 295.147 165.021 294.943C164.857 294.733 164.639 294.589 164.367 294.509C164.095 294.424 163.698 294.371 163.177 294.348L161.927 294.305V295.597C161.927 296.459 161.944 297.096 161.978 297.51C162.018 297.918 162.089 298.221 162.191 298.419C162.298 298.612 162.471 298.757 162.709 298.853V298.98H159.607V298.853ZM163.976 293.71C164.35 293.699 164.647 293.665 164.868 293.608C165.089 293.546 165.302 293.436 165.506 293.277C165.846 293.028 166.123 292.69 166.339 292.265C166.554 291.84 166.662 291.376 166.662 290.871C166.662 289.749 166.353 288.942 165.735 288.449C165.123 287.956 164.287 287.709 163.228 287.709C162.791 287.709 162.358 287.746 161.927 287.82V293.77L163.976 293.71ZM175.477 299.15C174.491 299.15 173.584 298.907 172.757 298.419C171.93 297.932 171.272 297.244 170.785 296.354C170.298 295.464 170.054 294.439 170.054 293.277C170.054 292.093 170.332 291.016 170.887 290.047C171.448 289.072 172.219 288.307 173.199 287.752C174.179 287.191 175.276 286.91 176.488 286.91C176.947 286.91 177.438 286.953 177.959 287.038C178.48 287.123 178.982 287.256 179.463 287.437C179.469 287.834 179.497 288.219 179.548 288.593C179.605 288.967 179.738 289.681 179.948 290.735H179.82C179.48 289.868 179.095 289.211 178.664 288.763C178.234 288.316 177.792 288.024 177.338 287.888C176.891 287.752 176.381 287.684 175.808 287.684C175.049 287.684 174.335 287.868 173.666 288.236C173.003 288.605 172.468 289.157 172.06 289.894C171.652 290.625 171.448 291.506 171.448 292.537C171.448 293.682 171.666 294.674 172.102 295.512C172.539 296.351 173.12 296.991 173.845 297.433C174.576 297.87 175.366 298.088 176.216 298.088C176.675 298.088 177.103 298.045 177.5 297.96C177.897 297.875 178.31 297.722 178.741 297.501V294.603C178.741 294.524 178.718 294.467 178.673 294.433C178.628 294.393 178.562 294.379 178.477 294.39L174.933 294.662L175.128 293.795H180.305C180.248 294.169 180.211 294.456 180.194 294.654C180.177 294.852 180.169 295.102 180.169 295.402V299.142H180.067L179.004 298.028C178.948 297.966 178.883 297.935 178.809 297.935C178.752 297.935 178.687 297.963 178.613 298.02C178.188 298.388 177.707 298.669 177.168 298.861C176.63 299.054 176.066 299.15 175.477 299.15ZM187.862 299.15C186.797 299.15 185.822 298.89 184.938 298.368C184.06 297.841 183.363 297.113 182.847 296.184C182.331 295.249 182.073 294.198 182.073 293.03C182.073 291.863 182.331 290.815 182.847 289.885C183.363 288.95 184.06 288.222 184.938 287.701C185.822 287.174 186.797 286.91 187.862 286.91C188.927 286.91 189.899 287.174 190.777 287.701C191.661 288.222 192.358 288.95 192.868 289.885C193.384 290.815 193.642 291.863 193.642 293.03C193.642 294.198 193.384 295.249 192.868 296.184C192.358 297.113 191.661 297.841 190.777 298.368C189.899 298.89 188.927 299.15 187.862 299.15ZM188.21 298.343C188.936 298.343 189.593 298.181 190.182 297.858C190.772 297.53 191.242 297.014 191.593 296.311C191.95 295.609 192.129 294.725 192.129 293.659C192.129 292.56 191.933 291.557 191.542 290.65C191.157 289.744 190.613 289.03 189.91 288.508C189.213 287.981 188.414 287.718 187.513 287.718C186.788 287.718 186.128 287.882 185.533 288.211C184.944 288.534 184.47 289.047 184.113 289.749C183.762 290.452 183.586 291.336 183.586 292.401C183.586 293.501 183.779 294.504 184.164 295.41C184.555 296.317 185.102 297.034 185.805 297.561C186.508 298.082 187.309 298.343 188.21 298.343ZM198.247 298.853C198.485 298.757 198.657 298.615 198.765 298.428C198.873 298.235 198.944 297.941 198.978 297.544C199.012 297.147 199.029 296.527 199.029 295.682V287.709H198.604C197.782 287.709 197.144 287.777 196.691 287.913C196.243 288.049 195.864 288.299 195.552 288.661C195.246 289.018 194.912 289.579 194.549 290.344H194.43C194.628 289.449 194.759 288.789 194.821 288.364C194.883 287.939 194.92 287.483 194.932 286.995L196.479 287.08H203.117L204.664 286.995C204.681 287.494 204.721 287.959 204.783 288.389C204.845 288.814 204.973 289.466 205.166 290.344H205.047C204.684 289.579 204.347 289.018 204.035 288.661C203.729 288.299 203.349 288.049 202.896 287.913C202.448 287.777 201.814 287.709 200.992 287.709H200.567V295.682C200.567 296.527 200.584 297.147 200.618 297.544C200.652 297.941 200.723 298.235 200.831 298.428C200.938 298.615 201.111 298.757 201.349 298.853V298.98H198.247V298.853ZM209.685 298.853C209.923 298.757 210.096 298.615 210.204 298.428C210.311 298.235 210.382 297.941 210.416 297.544C210.45 297.147 210.467 296.527 210.467 295.682V287.709H210.042C209.22 287.709 208.583 287.777 208.13 287.913C207.682 288.049 207.302 288.299 206.991 288.661C206.685 289.018 206.35 289.579 205.988 290.344H205.869C206.067 289.449 206.197 288.789 206.26 288.364C206.322 287.939 206.359 287.483 206.37 286.995L207.917 287.08H214.556L216.103 286.995C216.12 287.494 216.159 287.959 216.222 288.389C216.284 288.814 216.411 289.466 216.604 290.344H216.485C216.122 289.579 215.785 289.018 215.474 288.661C215.168 288.299 214.788 288.049 214.335 287.913C213.887 287.777 213.252 287.709 212.431 287.709H212.006V295.682C212.006 296.527 212.023 297.147 212.057 297.544C212.091 297.941 212.161 298.235 212.269 298.428C212.377 298.615 212.55 298.757 212.788 298.853V298.98H209.685V298.853ZM217.944 298.853C218.182 298.757 218.355 298.615 218.463 298.428C218.571 298.235 218.641 297.941 218.675 297.544C218.709 297.147 218.726 296.527 218.726 295.682V290.378C218.726 289.534 218.709 288.914 218.675 288.517C218.641 288.12 218.571 287.828 218.463 287.641C218.355 287.449 218.182 287.304 217.944 287.208V287.08H224.124L225.671 286.995C225.682 287.483 225.716 287.919 225.773 288.304C225.835 288.684 225.966 289.268 226.164 290.055H226.036C225.679 289.341 225.339 288.823 225.016 288.5C224.699 288.177 224.317 287.964 223.869 287.862C223.421 287.76 222.767 287.709 221.905 287.709C221.31 287.709 220.764 287.749 220.265 287.828V291.806L222.186 291.755C222.69 291.738 223.061 291.702 223.299 291.645C223.537 291.588 223.724 291.483 223.86 291.33C223.996 291.177 224.135 290.925 224.277 290.574H224.387C224.376 290.914 224.37 291.163 224.37 291.322C224.37 292.104 224.424 292.94 224.532 293.829H224.413C224.237 293.393 224.073 293.081 223.92 292.894C223.767 292.702 223.569 292.574 223.325 292.512C223.081 292.444 222.707 292.401 222.203 292.384L220.265 292.333V297.297C220.265 297.581 220.302 297.793 220.375 297.935C220.449 298.077 220.608 298.181 220.851 298.249C221.095 298.317 221.475 298.351 221.99 298.351C222.846 298.351 223.52 298.261 224.013 298.079C224.506 297.898 224.943 297.584 225.322 297.136C225.702 296.683 226.155 295.974 226.682 295.011H226.81C226.544 295.884 226.348 296.552 226.223 297.017C226.104 297.482 226.025 297.847 225.985 298.113C225.946 298.38 225.923 298.669 225.917 298.98H217.944V298.853ZM230.191 289.732C230.14 289.67 230.089 289.639 230.038 289.639C229.999 289.639 229.97 289.653 229.953 289.681C229.942 289.704 229.936 289.744 229.936 289.8L230.106 295.716C230.135 296.51 230.194 297.091 230.285 297.459C230.381 297.827 230.562 298.113 230.829 298.317C231.101 298.516 231.537 298.694 232.138 298.853V298.98H228.449V298.853C228.692 298.751 228.871 298.609 228.984 298.428C229.103 298.241 229.185 297.949 229.231 297.552C229.276 297.15 229.304 296.538 229.316 295.716L229.401 289.299C229.401 289.169 229.381 289.055 229.341 288.959C229.307 288.857 229.236 288.729 229.129 288.576C228.811 288.117 228.406 287.636 227.913 287.131V287.08H230.081C230.392 287.522 230.625 287.848 230.778 288.058C230.936 288.268 231.14 288.528 231.39 288.84L237.187 296.099C237.26 296.184 237.323 296.226 237.374 296.226C237.408 296.226 237.436 296.212 237.459 296.184C237.487 296.156 237.498 296.116 237.493 296.065L237.289 290.344C237.26 289.551 237.198 288.97 237.102 288.602C237.011 288.234 236.833 287.95 236.566 287.752C236.3 287.548 235.866 287.367 235.266 287.208V287.08H238.946V287.208C238.703 287.31 238.521 287.454 238.402 287.641C238.289 287.823 238.21 288.115 238.164 288.517C238.119 288.914 238.091 289.523 238.079 290.344L238.02 295.623C238.02 296.96 238.048 298.108 238.105 299.065H237.68L230.191 289.732Z" fill="#0C0C0C"/>
<path d="M28.7915 183.507H288.792" stroke="#B79D37"/>
<path d="M261 91.7017C260.145 89.7827 259.215 87.8637 258.342 85.9447C256.406 82.1824 255.354 78.0279 255.267 73.7977V73.4717C254.641 73.7597 254.318 74.3347 253.768 74.9297C249.307 79.7657 249.478 84.5247 248.605 91.0497C248.472 92.1237 248.472 92.9687 248.32 93.8127C247.776 93.2275 247.113 92.7664 246.375 92.4607C245.639 92.1566 244.845 92.0157 244.05 92.0477C244.05 92.1867 244.096 92.3217 244.183 92.4307C244.902 93.802 245.335 95.3053 245.456 96.8491C245.576 98.3929 245.382 99.9452 244.885 101.412C244.467 103.043 243.822 104.578 243.252 106.152C242.854 107.227 242.379 108.224 242.057 109.299C241.262 111.781 240.839 114.368 240.804 116.975C240.669 120.558 241.658 124.094 243.632 127.088C244.145 127.875 244.752 128.604 245.34 129.372C246.138 130.15 247.055 130.797 248.055 131.291C248.492 131.58 248.995 131.752 249.516 131.789C248.46 129.865 247.717 127.786 247.314 125.63C246.602 121.272 247.624 116.808 250.162 113.195C251.715 111.292 252.993 109.179 253.958 106.92C254.526 109.728 255.621 112.404 257.184 114.807C257.621 115.708 258.304 116.419 258.665 117.34C259.975 119.412 260.913 121.698 261.436 124.094C261.904 126.61 261.474 129.212 260.221 131.444C260.221 131.559 260.221 131.444 260.373 131.578C262.769 131.028 264.877 129.614 266.295 127.606C268.932 123.868 270.12 119.298 269.636 114.749C269.636 112.945 269.522 111.161 269.636 109.376C269.749 107.053 270.243 104.765 271.097 102.602C271.097 102.602 271.003 102.448 270.946 102.429C269.7 102.738 268.539 103.322 267.548 104.137C266.475 104.933 265.539 105.899 264.777 106.996C264.637 101.685 263.348 96.4671 261 91.7017ZM266.295 110.623C267.036 113.607 267.241 116.701 266.903 119.758C266.734 121.308 266.364 122.831 265.802 124.286C265.312 125.577 264.599 126.773 263.695 127.817H263.581C264.21 123.432 263.509 118.96 261.569 114.979C260.282 112.514 259.203 109.946 258.342 107.303C257.906 105.615 257.45 103.945 257.109 102.256C256.647 100.117 255.64 98.1339 254.185 96.4997H253.958C253.926 98.4166 253.493 100.306 252.686 102.045C252.39 102.838 252.035 103.608 251.623 104.348C251.205 105.116 250.902 105.5 250.427 106.267L250.067 106.804C249.305 107.93 248.626 109.11 248.036 110.335C247.369 111.564 246.81 112.848 246.365 114.173C244.976 117.899 244.738 121.957 245.682 125.821C245.869 126.316 245.996 126.831 246.062 127.357C245.514 126.535 245.05 125.66 244.676 124.747C243.272 121.057 243.145 117.003 244.315 113.233C245.34 110.182 246.707 107.476 247.884 104.636C248.829 102.564 249.628 100.429 250.275 98.2457C251.685 93.6401 252.763 88.9394 253.502 84.1797C254.062 87.2559 255.012 90.2481 256.33 93.0837C257.127 94.7537 257.982 96.2877 258.741 98.0537C259.5 99.8187 260.126 101.259 260.791 102.794C262.26 106.262 263.206 109.928 263.6 113.674H263.809C264.131 113.271 264.302 112.772 264.625 112.331C265.103 111.69 265.665 111.115 266.295 110.623Z" fill="#B79D37"/>
<path d="M256.322 131.656C256.796 131.656 257.005 131.253 257.366 130.908C257.673 130.599 257.929 130.243 258.125 129.852C258.869 128.502 259.118 126.934 258.827 125.42C258.783 124.854 258.681 124.295 258.524 123.75C258.049 122.167 257.311 120.674 256.341 119.336C255.354 117.667 254.443 117.014 254.006 115.191C254.006 114.827 253.873 114.251 253.873 114.251C253.873 114.251 253.721 114.251 253.645 114.385C252.139 115.817 251.007 117.596 250.348 119.567C249.686 121.543 249.515 123.65 249.849 125.707C250.112 126.985 250.506 128.233 251.026 129.43C251.426 130.358 252.085 131.151 252.924 131.714C252.924 131.579 253.19 131.503 253.038 131.33C252.528 130.143 252.226 128.877 252.146 127.588C252.097 125.782 252.593 124.004 253.57 122.484C253.666 122.329 253.796 122.197 253.949 122.1C254.323 123.442 254.866 124.732 255.563 125.938C255.889 126.634 256.15 127.36 256.341 128.106C256.515 128.978 256.547 129.872 256.436 130.754C256.34 131.045 256.301 131.351 256.322 131.656ZM245.749 134.192C246.82 134.615 247.795 135.251 248.615 136.061C249.438 136.874 250.09 137.843 250.532 138.912C252.977 138.73 255.432 138.73 257.878 138.912C259.147 136.76 261.068 135.067 263.363 134.077C262.43 133.44 261.34 133.075 260.212 133.021C256.594 132.33 252.878 132.33 249.26 133.021C247.932 133.29 246.47 133.367 245.749 134.192ZM250.867 149.157C250.808 150.572 250.846 151.989 250.981 153.398C253.241 153.865 255.547 154.065 257.852 153.993V149.157C260.7 149.464 263.945 148.754 263.205 145.741C262.788 143.995 260.168 143.822 257.966 144.091C257.83 142.958 257.792 141.815 257.852 140.675H250.867V143.899C248.362 144.014 245.724 143.899 245.515 146.259C245.306 148.62 247.868 149.425 250.867 149.157ZM64.0357 64.05C63.8247 63.236 63.5322 62.4453 63.1627 61.69C63.0297 61.402 62.6497 60.922 62.7447 60.826C62.8397 60.73 63.2577 60.922 63.4277 61.018C64.7907 61.8771 65.8919 63.0936 66.6117 64.535C67.3351 65.9822 67.6517 67.5988 67.5277 69.212V69.538C67.5277 72.11 66.6927 73.491 66.5217 76.044C66.4837 76.394 66.4837 76.748 66.5217 77.099C66.5217 77.099 66.3887 77.233 66.3317 77.099C66.1047 76.658 65.8767 76.466 65.6297 76.024C65.3751 75.5859 65.1654 75.1232 65.0037 74.643C64.8371 74.1629 64.7166 73.6679 64.6437 73.165C64.4952 72.4067 64.4314 71.6343 64.4537 70.862C64.2827 69.98 64.4537 68.943 64.4537 67.83C64.4525 66.5585 64.3124 65.291 64.0357 64.05ZM56.7247 80.568C56.6297 80.99 56.5727 81.22 56.4587 81.623C56.3021 82.3586 56.0601 83.0734 55.7377 83.753C55.7377 83.888 55.5667 83.926 55.5477 83.753C55.6589 82.3586 55.6207 80.9563 55.4337 79.57C55.2404 78.5023 54.9285 77.4595 54.5037 76.461C54.4081 76.5506 54.3363 76.6626 54.2947 76.787C53.7494 78.1725 53.3919 79.6247 53.2317 81.105C52.8992 83.4431 53.0742 85.8255 53.7447 88.09C53.7447 88.32 53.6117 88.397 53.4027 88.186C52.1442 86.6976 51.2996 84.9042 50.9537 82.986C50.5363 81.1805 50.5363 79.3035 50.9537 77.498C51.5808 75.6172 52.0695 73.6931 52.4157 71.741C52.5847 70.287 52.4757 68.815 52.0927 67.404V67.212C52.0927 67.154 52.6627 67.442 52.7387 67.5C54.0056 68.555 55.0337 69.8674 55.7547 71.35C56.4786 72.838 56.88 74.4621 56.9327 76.116C57.1251 77.6007 57.0547 79.1077 56.7247 80.568Z" fill="#B79D37"/>
<path d="M54.8895 91.7017C55.7435 89.7827 56.6735 87.8637 57.5465 85.9447C59.4826 82.1825 60.5344 78.0279 60.6215 73.7977V73.4717C61.2475 73.7597 61.5715 74.3347 62.1215 74.9297C66.5815 79.7657 66.4115 84.5247 67.2835 91.0497C67.4165 92.1237 67.4165 92.9687 67.5685 93.8127C68.1125 93.2274 68.7762 92.7663 69.5145 92.4607C70.2505 92.1566 71.0438 92.0156 71.8395 92.0477C71.8395 92.1867 71.7925 92.3217 71.7065 92.4307C70.9878 93.8021 70.555 95.3051 70.4343 96.8487C70.3137 98.3923 70.5076 99.9443 71.0045 101.411C71.4215 103.043 72.0675 104.578 72.6365 106.152C73.0355 107.227 73.5095 108.224 73.8325 109.299C74.6271 111.781 75.0491 114.368 75.0845 116.975C75.2192 120.558 74.2304 124.094 72.2565 127.088C71.7445 127.875 71.1365 128.604 70.5485 129.372C69.7485 130.151 68.8325 130.798 67.8345 131.291C67.3982 131.58 66.8946 131.751 66.3725 131.789C67.4275 129.868 68.1715 127.789 68.5745 125.63C69.287 121.272 68.265 116.808 65.7275 113.195C64.1733 111.292 62.8954 109.179 61.9315 106.92C61.3623 109.729 60.2674 112.404 58.7045 114.807C58.2675 115.708 57.5845 116.419 57.2245 117.34C55.914 119.412 54.9758 121.698 54.4525 124.094C53.984 126.61 54.414 129.212 55.6675 131.444C55.6675 131.559 55.6675 131.444 55.5155 131.578C53.1196 131.028 51.0107 129.614 49.5935 127.606C46.9564 123.868 45.7693 119.298 46.2535 114.749C46.2535 112.945 46.3665 111.161 46.2535 109.376C46.1391 107.053 45.6452 104.765 44.7915 102.602C44.7915 102.602 44.8865 102.448 44.9435 102.429C46.1886 102.739 47.3491 103.322 48.3405 104.137C49.4136 104.933 50.3499 105.898 51.1125 106.996C51.2523 101.685 52.5408 96.4671 54.8895 91.7017ZM49.5935 110.623C48.8531 113.608 48.6476 116.701 48.9865 119.758C49.1549 121.308 49.5246 122.831 50.0865 124.286C50.5761 125.577 51.2897 126.773 52.1945 127.817H52.3075C51.6783 123.432 52.3792 118.96 54.3195 114.979C55.6061 112.514 56.6855 109.946 57.5465 107.303C57.9835 105.615 58.4385 103.945 58.7805 102.256C59.2418 100.117 60.2488 98.134 61.7035 96.4997H61.9315C61.9627 98.4166 62.3957 100.306 63.2025 102.045C63.4983 102.838 63.8536 103.608 64.2655 104.348C64.6835 105.116 64.9875 105.5 65.4615 106.267L65.8215 106.804C66.5829 107.93 67.2619 109.11 67.8535 110.335C68.5196 111.564 69.0784 112.848 69.5235 114.173C70.9127 117.899 71.1506 121.957 70.2065 125.821C70.0196 126.316 69.8921 126.831 69.8265 127.357C70.3738 126.535 70.8381 125.66 71.2125 124.747C72.6162 121.057 72.7433 117.003 71.5735 113.233C70.5485 110.182 69.1825 107.476 68.0055 104.636C67.0603 102.564 66.261 100.429 65.6135 98.2457C64.2033 93.6401 63.1249 88.9394 62.3865 84.1797C61.8265 87.2559 60.8761 90.2481 59.5585 93.0837C58.7615 94.7537 57.9075 96.2877 57.1485 98.0537C56.3885 99.8187 55.7625 101.259 55.0985 102.794C53.6288 106.261 52.6818 109.928 52.2885 113.674H52.0805C51.7575 113.271 51.5865 112.772 51.2635 112.331C50.7851 111.69 50.2235 111.115 49.5935 110.623Z" fill="#B79D37"/>
<path d="M59.5674 131.656C59.0924 131.656 58.8834 131.253 58.5234 130.908C58.2157 130.598 57.9592 130.242 57.7634 129.852C57.0192 128.502 56.7708 126.934 57.0614 125.42C57.1057 124.854 57.2075 124.295 57.3654 123.75C57.8402 122.167 58.5782 120.674 59.5484 119.336C60.5354 117.667 61.4464 117.014 61.8824 115.191C61.8824 114.827 62.0154 114.251 62.0154 114.251C62.0154 114.251 62.1674 114.251 62.2434 114.385C63.7494 115.817 64.8817 117.596 65.5414 119.567C66.2034 121.541 66.3744 123.65 66.0394 125.707C65.7768 126.985 65.3824 128.233 64.8624 129.43C64.462 130.358 63.8031 131.151 62.9644 131.714C62.9644 131.579 62.6984 131.503 62.8504 131.33C63.3604 130.144 63.6624 128.878 63.7434 127.588C63.792 125.782 63.2958 124.004 62.3194 122.484C62.2231 122.329 62.0932 122.198 61.9394 122.1C61.5647 123.442 61.0227 124.731 60.3264 125.938C59.9996 126.635 59.7391 127.36 59.5484 128.106C59.3744 128.978 59.3424 129.872 59.4534 130.754C59.5484 131.045 59.5874 131.351 59.5674 131.656ZM70.1394 134.192C69.0679 134.615 68.093 135.251 67.2734 136.061C66.4503 136.874 65.7985 137.843 65.3564 138.912C62.9114 138.73 60.4563 138.73 58.0114 138.912C56.7415 136.759 54.8204 135.066 52.5254 134.077C53.4576 133.441 54.548 133.075 55.6754 133.021C59.2937 132.33 63.0101 132.33 66.6284 133.021C67.9574 133.29 69.4184 133.367 70.1394 134.192ZM65.0214 149.157C65.0814 150.571 65.0424 151.988 64.9074 153.398C62.6474 153.865 60.3414 154.065 58.0364 153.993V149.157C55.1894 149.464 51.9434 148.754 52.6834 145.741C53.1014 143.995 55.7204 143.822 57.9234 144.091C58.0584 142.958 58.0964 141.815 58.0364 140.675H65.0214V143.899C67.5264 144.014 70.1654 143.899 70.3744 146.259C70.5824 148.62 68.0204 149.425 65.0214 149.157Z" fill="#B79D37"/>
<path d="M77.287 235.779C77.7203 235.606 78.0323 235.35 78.223 235.012C78.4223 234.674 78.548 234.202 78.6 233.595C78.652 232.98 78.678 232.031 78.678 230.748V221.271C78.678 220.794 78.6347 220.443 78.548 220.218C78.47 219.984 78.3053 219.789 78.054 219.633C77.8027 219.477 77.3737 219.286 76.767 219.061V218.84L82.357 217.54V230.748C82.357 232.031 82.383 232.98 82.435 233.595C82.487 234.202 82.6083 234.674 82.799 235.012C82.9983 235.35 83.3147 235.606 83.748 235.779V236H77.287V235.779ZM90.7788 236.26C89.2794 236.26 87.7931 236.013 86.3198 235.519C86.3198 234.722 86.2808 234.02 86.2028 233.413C86.1334 232.798 85.9558 231.801 85.6698 230.423H85.8648C86.5754 231.61 87.2471 232.542 87.8798 233.218C88.5124 233.894 89.1061 234.362 89.6608 234.622C90.2241 234.882 90.8004 235.012 91.3898 235.012C92.0224 235.012 92.5858 234.882 93.0798 234.622C93.5824 234.362 93.9724 233.994 94.2498 233.517C94.5358 233.032 94.6788 232.464 94.6788 231.814C94.6788 230.817 94.3971 230.024 93.8338 229.435C93.2704 228.846 92.4168 228.386 91.2728 228.057C90.1288 227.719 88.5644 227.424 86.5798 227.173L87.9968 217.8H93.9638C94.6658 217.8 95.2074 217.765 95.5888 217.696C95.9788 217.627 96.5204 217.488 97.2138 217.28C96.8498 218.615 96.6808 219.828 96.7068 220.92C96.0394 220.885 95.1988 220.868 94.1848 220.868H88.2568V224.027L90.7528 224.404C93.2401 224.759 95.0514 225.44 96.1868 226.445C97.3308 227.442 97.9028 228.724 97.9028 230.293C97.9028 231.454 97.5994 232.49 96.9928 233.4C96.3861 234.301 95.5411 235.003 94.4578 235.506C93.3744 236.009 92.1481 236.26 90.7788 236.26ZM104.609 236.26C103.422 236.26 102.529 235.922 101.931 235.246C101.342 234.561 101.047 233.612 101.047 232.399L101.06 224.677C101.06 224.547 101.026 224.456 100.956 224.404C100.887 224.343 100.779 224.3 100.631 224.274L99.3573 224.014V223.832L104.31 219.659H104.466V223.416L108.249 222.974C108.431 222.948 108.561 223.026 108.639 223.208C108.726 223.381 108.769 223.598 108.769 223.858C108.769 224.118 108.726 224.33 108.639 224.495C108.561 224.66 108.431 224.733 108.249 224.716L104.466 224.261V231.606C104.466 232.438 104.635 233.053 104.973 233.452C105.311 233.842 105.857 234.037 106.611 234.037C107.045 234.037 107.456 233.968 107.846 233.829C108.236 233.682 108.553 233.504 108.795 233.296L108.886 233.374C108.47 234.241 107.894 234.938 107.157 235.467C106.421 235.996 105.571 236.26 104.609 236.26ZM109.763 235.779C110.11 235.606 110.361 235.359 110.517 235.038C110.673 234.717 110.773 234.275 110.816 233.712C110.859 233.149 110.881 232.291 110.881 231.138V221.622C110.881 220.894 110.855 220.37 110.803 220.049C110.76 219.728 110.651 219.317 110.478 218.814L110.088 217.735V217.67C110.816 217.566 111.505 217.423 112.155 217.241C112.814 217.05 113.529 216.803 114.3 216.5H114.456L114.3 219.516V225.028C114.3 225.115 114.317 225.18 114.352 225.223C114.387 225.266 114.43 225.288 114.482 225.288C114.56 225.288 114.673 225.227 114.82 225.106C115.687 224.413 116.458 223.884 117.134 223.52C117.81 223.147 118.495 222.961 119.188 222.961C119.795 222.961 120.323 223.117 120.774 223.429C121.233 223.732 121.589 224.179 121.84 224.768C122.091 225.349 122.217 226.046 122.217 226.861V231.138C122.217 232.291 122.239 233.149 122.282 233.712C122.325 234.275 122.425 234.717 122.581 235.038C122.737 235.359 122.988 235.606 123.335 235.779V236H117.68V235.779C118.027 235.606 118.278 235.359 118.434 235.038C118.59 234.717 118.69 234.275 118.733 233.712C118.776 233.149 118.798 232.291 118.798 231.138V227.732C118.798 226.848 118.633 226.228 118.304 225.873C117.975 225.518 117.524 225.34 116.952 225.34C116.519 225.34 116.094 225.401 115.678 225.522C115.271 225.635 114.811 225.817 114.3 226.068V231.138C114.3 232.291 114.322 233.149 114.365 233.712C114.408 234.275 114.508 234.717 114.664 235.038C114.82 235.359 115.071 235.606 115.418 235.779V236H109.763V235.779ZM128.51 235.779C128.891 235.606 129.229 235.337 129.524 234.973C129.818 234.609 130.126 234.098 130.447 233.439C130.767 232.772 131.218 231.762 131.799 230.41L135.92 220.764C136.041 220.495 136.102 220.266 136.102 220.075C136.102 219.962 136.071 219.824 136.011 219.659L135.257 217.8H139.274C139.473 218.415 139.824 219.33 140.327 220.543L144.565 230.41C145.163 231.797 145.618 232.815 145.93 233.465C146.25 234.115 146.554 234.622 146.84 234.986C147.134 235.341 147.472 235.606 147.854 235.779V236H141.12V235.779C141.458 235.658 141.705 235.497 141.861 235.298C142.025 235.099 142.108 234.839 142.108 234.518C142.108 234.145 142.012 233.664 141.822 233.075C141.631 232.486 141.323 231.684 140.899 230.67L140.353 229.37H133.658L133.151 230.761C132.674 232.087 132.436 233.084 132.436 233.751C132.436 234.323 132.6 234.765 132.93 235.077C133.268 235.38 133.809 235.614 134.555 235.779V236H128.51V235.779ZM139.885 228.239L137.103 221.531C137.033 221.366 136.938 221.284 136.817 221.284C136.678 221.284 136.574 221.371 136.505 221.544L134.074 228.239H139.885ZM148.415 240.823C148.762 240.65 149.013 240.403 149.169 240.082C149.325 239.761 149.425 239.319 149.468 238.756C149.511 238.193 149.533 237.335 149.533 236.182V228.226C149.533 227.515 149.507 227 149.455 226.679C149.412 226.358 149.299 225.951 149.117 225.457L148.727 224.378V224.313C149.446 224.192 150.114 224.036 150.729 223.845C151.353 223.654 152.02 223.407 152.731 223.104H152.887V224.664C152.887 224.82 152.939 224.898 153.043 224.898C153.138 224.898 153.264 224.82 153.42 224.664C154.555 223.529 155.743 222.961 156.982 222.961C157.814 222.961 158.572 223.204 159.257 223.689C159.942 224.166 160.483 224.855 160.882 225.756C161.281 226.657 161.48 227.71 161.48 228.915C161.48 230.44 161.181 231.758 160.583 232.867C159.985 233.976 159.205 234.821 158.243 235.402C157.29 235.974 156.289 236.26 155.24 236.26C154.85 236.26 154.473 236.23 154.109 236.169C153.754 236.108 153.368 236.022 152.952 235.909V236.182C152.952 237.343 152.978 238.201 153.03 238.756C153.082 239.319 153.199 239.761 153.381 240.082C153.563 240.403 153.862 240.65 154.278 240.823V241.044H148.415V240.823ZM155.149 235.246C156.076 235.246 156.778 234.834 157.255 234.011C157.74 233.188 157.983 232.061 157.983 230.631C157.983 229.513 157.849 228.547 157.58 227.732C157.311 226.917 156.913 226.293 156.384 225.86C155.864 225.418 155.24 225.197 154.512 225.197C154.235 225.197 153.983 225.236 153.758 225.314C153.541 225.392 153.273 225.509 152.952 225.665V232.594C152.952 233.478 153.164 234.141 153.589 234.583C154.014 235.025 154.534 235.246 155.149 235.246ZM163.236 235.779C163.583 235.606 163.834 235.359 163.99 235.038C164.155 234.709 164.259 234.262 164.302 233.699C164.346 233.136 164.367 232.278 164.367 231.125V228.226C164.367 227.524 164.341 227.017 164.289 226.705C164.237 226.384 164.125 225.968 163.951 225.457L163.548 224.378V224.313C164.268 224.192 164.935 224.036 165.55 223.845C166.174 223.654 166.842 223.407 167.552 223.104H167.708V226.107C167.708 226.254 167.76 226.328 167.864 226.328C167.96 226.328 168.051 226.259 168.137 226.12C168.735 225.201 169.364 224.447 170.022 223.858C170.69 223.26 171.275 222.961 171.777 222.961C172.124 222.961 172.38 223.117 172.544 223.429C172.709 223.741 172.791 224.183 172.791 224.755C172.791 225.431 172.679 226.267 172.453 227.264H172.401C172.167 226.891 171.899 226.631 171.595 226.484C171.292 226.337 170.954 226.263 170.581 226.263C170.122 226.263 169.671 226.328 169.229 226.458C168.787 226.588 168.302 226.796 167.773 227.082V231.125C167.773 232.269 167.799 233.127 167.851 233.699C167.912 234.262 168.042 234.709 168.241 235.038C168.441 235.359 168.757 235.606 169.19 235.779V236H163.236V235.779ZM174.027 235.779C174.374 235.606 174.625 235.359 174.781 235.038C174.946 234.717 175.05 234.275 175.093 233.712C175.137 233.149 175.158 232.291 175.158 231.138V228.213C175.158 227.485 175.132 226.961 175.08 226.64C175.037 226.319 174.929 225.912 174.755 225.418L174.365 224.339V224.274C175.076 224.17 175.739 224.027 176.354 223.845C176.978 223.654 177.663 223.407 178.408 223.104H178.564V231.138C178.564 232.291 178.586 233.149 178.629 233.712C178.673 234.275 178.772 234.717 178.928 235.038C179.093 235.359 179.349 235.606 179.695 235.779V236H174.027V235.779ZM176.653 221.427C176.211 221.427 175.821 221.34 175.483 221.167C175.145 220.994 174.885 220.76 174.703 220.465C174.521 220.162 174.43 219.828 174.43 219.464C174.43 219.1 174.521 218.771 174.703 218.476C174.885 218.181 175.145 217.952 175.483 217.787C175.821 217.614 176.211 217.527 176.653 217.527C177.095 217.527 177.485 217.614 177.823 217.787C178.161 217.952 178.421 218.181 178.603 218.476C178.785 218.771 178.876 219.1 178.876 219.464C178.876 219.837 178.785 220.17 178.603 220.465C178.421 220.76 178.161 220.994 177.823 221.167C177.485 221.34 177.095 221.427 176.653 221.427ZM181.288 235.779C181.635 235.606 181.886 235.359 182.042 235.038C182.198 234.717 182.298 234.275 182.341 233.712C182.385 233.149 182.406 232.291 182.406 231.138V221.622C182.406 220.894 182.38 220.37 182.328 220.049C182.285 219.728 182.177 219.317 182.003 218.814L181.613 217.735V217.67C182.341 217.566 183.03 217.423 183.68 217.241C184.339 217.05 185.054 216.803 185.825 216.5H185.981L185.825 219.516V231.138C185.825 232.291 185.847 233.149 185.89 233.712C185.934 234.275 186.033 234.717 186.189 235.038C186.345 235.359 186.597 235.606 186.943 235.779V236H181.288V235.779ZM194.389 235.779C194.822 235.606 195.134 235.35 195.325 235.012C195.524 234.674 195.65 234.202 195.702 233.595C195.754 232.98 195.78 232.031 195.78 230.748V221.271C195.78 220.794 195.736 220.443 195.65 220.218C195.572 219.984 195.407 219.789 195.156 219.633C194.904 219.477 194.475 219.286 193.869 219.061V218.84L199.459 217.54V230.748C199.459 232.031 199.485 232.98 199.537 233.595C199.589 234.202 199.71 234.674 199.901 235.012C200.1 235.35 200.416 235.606 200.85 235.779V236H194.389V235.779ZM208.634 236.26C207.3 236.26 205.887 235.991 204.396 235.454C204.388 234.639 204.349 233.946 204.279 233.374C204.21 232.793 204.037 231.901 203.759 230.696H203.954C204.908 232.247 205.861 233.335 206.814 233.959C207.776 234.574 208.652 234.882 209.44 234.882C210.385 234.882 211.13 234.618 211.676 234.089C212.222 233.56 212.608 232.806 212.833 231.827C213.059 230.848 213.171 229.621 213.171 228.148V227.641C213.171 227.546 213.154 227.472 213.119 227.42C213.085 227.368 213.037 227.342 212.976 227.342C212.907 227.342 212.825 227.39 212.729 227.485C212.175 228.074 211.533 228.542 210.805 228.889C210.077 229.227 209.297 229.396 208.465 229.396C207.434 229.396 206.502 229.171 205.67 228.72C204.847 228.261 204.197 227.615 203.72 226.783C203.244 225.942 203.005 224.976 203.005 223.884C203.005 222.636 203.309 221.531 203.915 220.569C204.522 219.607 205.324 218.862 206.32 218.333C207.317 217.804 208.374 217.54 209.492 217.54C210.974 217.54 212.266 217.934 213.366 218.723C214.467 219.503 215.312 220.586 215.901 221.973C216.499 223.351 216.798 224.92 216.798 226.679C216.798 228.577 216.46 230.25 215.784 231.697C215.108 233.144 214.151 234.267 212.911 235.064C211.681 235.861 210.255 236.26 208.634 236.26ZM210.129 227.81C210.745 227.81 211.286 227.676 211.754 227.407C212.231 227.138 212.682 226.753 213.106 226.25C213.011 224.794 212.803 223.503 212.482 222.376C212.162 221.249 211.72 220.365 211.156 219.724C210.593 219.074 209.926 218.749 209.154 218.749C208.288 218.749 207.616 219.078 207.139 219.737C206.671 220.387 206.437 221.379 206.437 222.714C206.437 223.563 206.576 224.378 206.853 225.158C207.139 225.938 207.56 226.575 208.114 227.069C208.678 227.563 209.349 227.81 210.129 227.81ZM225.797 236.26C224.488 236.26 223.331 236.078 222.326 235.714C221.32 235.35 220.54 234.839 219.986 234.18C219.44 233.521 219.167 232.763 219.167 231.905C219.167 230.986 219.509 230.167 220.194 229.448C220.887 228.729 221.819 228.113 222.989 227.602C223.058 227.576 223.106 227.55 223.132 227.524C223.166 227.489 223.184 227.446 223.184 227.394C223.184 227.342 223.166 227.303 223.132 227.277C223.106 227.242 223.045 227.199 222.95 227.147C221.823 226.497 221.017 225.786 220.532 225.015C220.055 224.235 219.817 223.368 219.817 222.415C219.817 221.522 220.094 220.703 220.649 219.958C221.212 219.213 222.005 218.623 223.028 218.19C224.05 217.757 225.229 217.54 226.564 217.54C227.664 217.54 228.652 217.709 229.528 218.047C230.412 218.376 231.105 218.836 231.608 219.425C232.11 220.014 232.362 220.682 232.362 221.427C232.362 222.276 232.045 223.039 231.413 223.715C230.78 224.382 229.983 224.963 229.021 225.457C228.873 225.526 228.8 225.609 228.8 225.704C228.8 225.756 228.813 225.799 228.839 225.834C228.873 225.869 228.93 225.908 229.008 225.951C230.429 226.722 231.478 227.498 232.154 228.278C232.83 229.058 233.168 229.972 233.168 231.021C233.168 232.07 232.838 232.993 232.18 233.79C231.521 234.579 230.628 235.19 229.502 235.623C228.384 236.048 227.149 236.26 225.797 236.26ZM226.382 235.363C227.404 235.363 228.21 235.099 228.8 234.57C229.389 234.033 229.684 233.3 229.684 232.373C229.684 231.87 229.58 231.433 229.372 231.06C229.172 230.687 228.869 230.345 228.462 230.033C228.054 229.721 227.504 229.387 226.811 229.032L224.055 227.628C223.396 228.252 222.945 228.889 222.703 229.539C222.469 230.18 222.352 230.848 222.352 231.541C222.352 232.312 222.525 232.988 222.872 233.569C223.218 234.141 223.695 234.583 224.302 234.895C224.908 235.207 225.602 235.363 226.382 235.363ZM228.046 225.509C228.531 224.894 228.847 224.339 228.995 223.845C229.142 223.351 229.216 222.779 229.216 222.129C229.216 221.306 229.06 220.621 228.748 220.075C228.436 219.52 228.02 219.113 227.5 218.853C226.988 218.584 226.421 218.45 225.797 218.45C224.93 218.45 224.237 218.671 223.717 219.113C223.197 219.555 222.937 220.179 222.937 220.985C222.937 221.67 223.171 222.281 223.639 222.818C224.107 223.347 224.809 223.854 225.745 224.339L228.046 225.509ZM241.084 236.26C239.749 236.26 238.336 235.991 236.846 235.454C236.837 234.639 236.798 233.946 236.729 233.374C236.659 232.793 236.486 231.901 236.209 230.696H236.404C237.357 232.247 238.31 233.335 239.264 233.959C240.226 234.574 241.101 234.882 241.89 234.882C242.834 234.882 243.58 234.618 244.126 234.089C244.672 233.56 245.057 232.806 245.283 231.827C245.508 230.848 245.621 229.621 245.621 228.148V227.641C245.621 227.546 245.603 227.472 245.569 227.42C245.534 227.368 245.486 227.342 245.426 227.342C245.356 227.342 245.274 227.39 245.179 227.485C244.624 228.074 243.983 228.542 243.255 228.889C242.527 229.227 241.747 229.396 240.915 229.396C239.883 229.396 238.952 229.171 238.12 228.72C237.296 228.261 236.646 227.615 236.17 226.783C235.693 225.942 235.455 224.976 235.455 223.884C235.455 222.636 235.758 221.531 236.365 220.569C236.971 219.607 237.773 218.862 238.77 218.333C239.766 217.804 240.824 217.54 241.942 217.54C243.424 217.54 244.715 217.934 245.816 218.723C246.916 219.503 247.761 220.586 248.351 221.973C248.949 223.351 249.248 224.92 249.248 226.679C249.248 228.577 248.91 230.25 248.234 231.697C247.558 233.144 246.6 234.267 245.361 235.064C244.13 235.861 242.704 236.26 241.084 236.26ZM242.579 227.81C243.194 227.81 243.736 227.676 244.204 227.407C244.68 227.138 245.131 226.753 245.556 226.25C245.46 224.794 245.252 223.503 244.932 222.376C244.611 221.249 244.169 220.365 243.606 219.724C243.042 219.074 242.375 218.749 241.604 218.749C240.737 218.749 240.065 219.078 239.589 219.737C239.121 220.387 238.887 221.379 238.887 222.714C238.887 223.563 239.025 224.378 239.303 225.158C239.589 225.938 240.009 226.575 240.564 227.069C241.127 227.563 241.799 227.81 242.579 227.81Z" fill="#B79D37"/>
<path d="M173.105 145C178.11 119.882 185.975 106.929 200.561 91.6536C200.895 91.3286 201.038 91.05 201.038 90.8179C201.038 90.4 200.704 90.075 199.846 90.1214L178.873 90.9107C170.198 91.1893 168.243 92.025 163.667 97.1786H163C165.145 87.9857 165.86 83.9929 165.765 80H211V80.4643C197.987 98.8964 189.407 118.675 188.358 145H173.105Z" fill="#B79D37"/>
<path d="M127.997 146C124.118 146 119.222 145.395 112.942 143.115C112.895 137.904 112.803 135.345 110.679 126.086H111.371C118.899 138.463 126.473 141.068 130.861 141.068C141.667 141.068 144.346 131.158 144.115 115.152C144.115 114.454 143.838 114.082 143.422 114.082C143.191 114.082 142.868 114.268 142.545 114.594C138.804 118.595 133.585 121.433 127.397 121.433C116.405 121.433 108 113.71 108 101.706C108 87.8403 119.222 79 131.045 79C147.117 79 157 92.8188 157 111.709C157 132.274 145.5 146 127.997 146ZM133.308 115.757C137.973 115.757 141.159 113.431 143.884 110.174C142.914 95.0056 138.388 83.3271 129.844 83.3271C123.841 83.3271 120.192 87.7472 120.192 97.5181C120.192 106.265 124.58 115.757 133.308 115.757Z" fill="#B79D37"/>
</g>
<defs>
<clipPath id="clip0_928_15491">
<rect width="315" height="338" fill="white" transform="translate(0.791504 0.799805)"/>
</clipPath>
</defs>
</svg>
